# xmcd
#
# Track frame offsets:
#	150
#	15943
#	38764
#
# Disc length: 807 seconds
#
# Revision: 0
# Processed by: cddbd v1.4PL0 Copyright (c) Steve Scherf et al.
# Submitted via: audiograbber 1.81.03
#
DISCID=13032503
DTITLE=Microwave Dane and The Nukes - Bip Bip [CD Single)
DYEAR=1996
DGENRE=Blues
TTITLE0=Road Runner (7')
TTITLE1=Last Call For Alcohol
TTITLE2=Road Runner (12')
EXTD=
EXTT0=
EXTT1=
EXTT2=
PLAYORDER=
